<?xml version="1.0" encoding="UTF-8"?>
<!DOCTYPE svg PUBLIC "-//W3C//DTD SVG 1.1//EN" "http://www.w3.org/Graphics/SVG/1.1/DTD/svg11.dtd">
<svg version="1.1" xmlns="http://www.w3.org/2000/svg" xmlns:xlink="http://www.w3.org/1999/xlink" x="0" y="0" width="362.283" height="655.801" viewBox="0, 0, 362.283, 655.801">
  <g id="Layer_1">
    <path d="M355.231,486.749 L341.77,487.967 C341.77,487.967 341.424,506.073 349.881,512.501 C356.612,517.614 358.283,513.929 358.283,513.929 z M225.361,243.471 L223.081,242.615 C223.064,242.604 223.047,242.59 223.029,242.579 C222.579,242.41 222.14,242.251 221.71,242.1 L221.695,242.095 C218.264,240.892 215.476,240.27 213.14,240.257 L211.999,239.853 L211.681,236.498 C218.069,235.92 224.032,234.729 229.579,232.998 C239.446,237.811 247.93,241.857 253.7,244.586 L253.549,244.63 C250.486,245.524 248.573,248.215 249.28,250.642 C249.988,253.064 253.04,254.304 256.101,253.415 C250.525,258.857 248.549,267.901 252.47,274.275 C253.326,275.668 254.381,276.519 255.463,277.298 L248.622,282.847 C238.484,262.97 230.627,246.395 225.361,243.471 M95.497,228.801 C87.317,241.083 75.919,232.633 75.919,232.633 C75.919,232.633 64.946,223.516 69.264,215.802 C70.772,213.108 74.384,213.075 78.05,213.332 C77.399,217.141 76.708,219.453 76.708,219.453 L87.032,225.317 L93.448,220.365 C95.294,223.208 97.3,226.093 95.497,228.801 M282.65,219.963 L284.626,237.503 C280.301,238.296 274.976,241.074 272.08,249.373 C272.078,249.379 272.076,249.384 272.074,249.39 C271.079,249.122 270.108,248.939 269.159,248.84 C270.457,247.611 271.073,245.959 270.622,244.414 C269.914,241.988 266.857,240.746 263.792,241.641 L262.649,241.975 C265.29,237.859 270.999,231.091 282.65,219.963 M340.386,488.817 L321.252,492.445 L321.055,490.583 C321.055,490.583 320.257,490.688 318.774,490.888 C318.743,490.645 318.722,490.462 318.712,490.363 C318.584,489.145 313.734,489.646 313.537,490.897 C313.486,491.213 313.199,491.475 312.8,491.691 C311.245,491.898 309.491,492.134 307.566,492.392 C306.153,492.302 304.246,492.235 302.902,492.402 C300.778,492.664 297.891,493.575 297.285,493.774 C286.886,495.172 266.844,499.017 244.817,503.51 C243.528,487.803 241.326,460.669 238.965,430.338 C250.49,430.445 261.655,430.521 261.655,430.521 C261.655,430.521 260.04,424 258.816,419.057 C259.527,411.216 244.798,333.433 242.029,321.623 C241.025,317.336 240.357,312.507 239.921,307.671 C244.713,312.343 250.53,314.958 259.775,307.18 C261.323,305.876 263.745,303.207 266.521,299.92 C271.24,302.989 278.167,303.405 282.138,306.199 C288.513,310.685 286.388,319.135 286.388,319.135 C286.388,319.135 298.087,311.848 296.136,303.319 C294.183,294.791 287.816,295.296 284.736,288.963 C282.645,284.665 282.375,283.118 283.751,278.072 C284.707,276.808 285.507,275.745 286.11,274.94 C286.989,274.747 287.873,274.481 288.756,274.153 L290.17,286.703 L292.47,286.703 C298.063,283.375 306.319,281.267 315.536,281.267 C324.754,281.267 333.011,283.375 338.603,286.703 L340.903,286.703 L348.797,216.642 L347.971,216.642 L356.204,194.296 L347.145,189.464 L346.541,180.404 L339.897,177.988 L335.669,171.949 L325.402,176.78 L324.969,168 C345.867,117.957 329.446,50.107 249.273,13.23 C192.841,-12.726 157.945,24.102 157.945,24.102 C84.842,51.45 103.068,119.254 118.942,154.808 C123.109,196.323 148.105,233.837 196.593,236.721 L196.296,239.853 L195.525,240.126 L188.052,242.704 C188.052,242.704 187.052,243.796 185.671,245.499 C177.229,249.643 150.748,261.956 133.584,281.703 L100.033,257.723 L102.718,255.097 C102.718,255.097 109.525,244.598 108.006,231.647 C106.664,220.217 100.46,210.304 95.251,210.712 L95.379,208.824 C97.484,181.042 76.831,136.962 76.831,136.962 L65.855,133.767 L59.27,146.545 C59.27,146.545 68.599,159.321 75.733,179.124 C78.879,187.855 79.439,196.724 79.083,203.915 C73.18,203.292 65.656,204.863 60.526,209.381 C50.763,217.978 63.349,235.314 63.349,235.314 C63.349,235.314 34.524,227.336 33.029,233.433 C31.433,239.948 61.673,247.011 61.673,247.011 C61.673,247.011 29.202,248.117 29.911,253.341 C31.057,261.778 62.406,258.795 62.406,258.795 C62.406,258.795 32.437,265.15 38.263,270.721 C45.121,277.277 77.898,270.239 87.52,267.995 C100.483,282.936 122.12,307.551 126.913,310.971 C133.046,315.349 156.485,298.44 172.71,285.574 C172.105,288.285 171.488,291.085 170.875,293.915 C176.131,289.916 179.054,290.477 179.057,290.475 L179.058,290.471 L179.058,290.475 C179.058,290.475 103.484,315.706 103.484,398.532 C103.484,425.038 127.314,455.906 127.314,471.641 C127.314,487.375 127.072,517.703 127.072,517.703 L188.18,517.703 C196.085,560.13 203.415,599.381 203.415,599.381 C203.415,599.381 201.743,603.922 203.351,606.538 L204.956,609.152 C204.956,609.152 200.435,611.724 203.272,614.994 C206.109,618.266 203.864,617.113 203.864,617.113 C204.009,617.878 206.368,617.864 208.415,617.704 L211.747,636.593 L225.6,636.878 L224.13,617.445 L228.083,617.471 C228.083,617.471 228.067,616.666 228.035,615.169 C228.28,615.167 228.465,615.166 228.562,615.166 C229.787,615.176 229.831,610.3 228.611,609.965 C228.302,609.879 228.074,609.565 227.903,609.143 C227.871,607.575 227.833,605.807 227.79,603.863 C228.038,602.471 228.318,600.583 228.302,599.227 C228.278,597.088 227.695,594.117 227.566,593.493 C227.341,583.148 225.568,563.22 223.297,541.198 C225.15,540.84 226.365,540.42 226.365,540.42 C267.658,528.317 305.832,517.115 305.832,517.115 C305.832,517.115 310.53,518.269 312.95,516.382 L315.37,514.493 C315.37,514.493 318.43,518.699 321.363,515.516 C324.298,512.331 323.403,514.69 323.403,514.689 C324.427,514.375 323.515,510.051 323.046,508.095 L341.649,502.615 z M200.443,643.607 C194.609,649.725 198.085,651.797 198.085,651.797 L225.435,651.801 L225.729,638.285 C225.729,638.285 207.774,635.921 200.443,643.607" fill="#666666" id="path18410"/>
    <path d="M355.231,486.749 L341.77,487.967 C341.77,487.967 341.424,506.073 349.881,512.501 C356.612,517.614 358.283,513.929 358.283,513.929 z M225.361,243.471 L223.081,242.615 C223.064,242.604 223.047,242.59 223.029,242.579 C222.579,242.41 222.14,242.251 221.71,242.1 L221.695,242.095 C218.264,240.892 215.476,240.27 213.14,240.257 L211.999,239.853 L211.681,236.498 C218.069,235.92 224.032,234.729 229.579,232.998 C239.446,237.811 247.93,241.857 253.7,244.586 L253.549,244.63 C250.486,245.524 248.573,248.215 249.28,250.642 C249.988,253.064 253.04,254.304 256.101,253.415 C250.525,258.857 248.549,267.901 252.47,274.275 C253.326,275.668 254.381,276.519 255.463,277.298 L248.622,282.847 C238.484,262.97 230.627,246.395 225.361,243.471 z M95.497,228.801 C87.317,241.083 75.919,232.633 75.919,232.633 C75.919,232.633 64.946,223.516 69.264,215.802 C70.772,213.108 74.384,213.075 78.05,213.332 C77.399,217.141 76.708,219.453 76.708,219.453 L87.032,225.317 L93.448,220.365 C95.294,223.208 97.3,226.093 95.497,228.801 z M282.65,219.963 L284.626,237.503 C280.301,238.296 274.976,241.074 272.08,249.373 C272.078,249.379 272.076,249.384 272.074,249.39 C271.079,249.122 270.108,248.939 269.159,248.84 C270.457,247.611 271.073,245.959 270.622,244.414 C269.914,241.988 266.857,240.746 263.792,241.641 L262.649,241.975 C265.29,237.859 270.999,231.091 282.65,219.963 z M340.386,488.817 L321.252,492.445 L321.055,490.583 C321.055,490.583 320.257,490.688 318.774,490.888 C318.743,490.645 318.722,490.462 318.712,490.363 C318.584,489.145 313.734,489.646 313.537,490.897 C313.486,491.213 313.199,491.475 312.8,491.691 C311.245,491.898 309.491,492.134 307.566,492.392 C306.153,492.302 304.246,492.235 302.902,492.402 C300.778,492.664 297.891,493.575 297.285,493.774 C286.886,495.172 266.844,499.017 244.817,503.51 C243.528,487.803 241.326,460.669 238.965,430.338 C250.49,430.445 261.655,430.521 261.655,430.521 C261.655,430.521 260.04,424 258.816,419.057 C259.527,411.216 244.798,333.433 242.029,321.623 C241.025,317.336 240.357,312.507 239.921,307.671 C244.713,312.343 250.53,314.958 259.775,307.18 C261.323,305.876 263.745,303.207 266.521,299.92 C271.24,302.989 278.167,303.405 282.138,306.199 C288.513,310.685 286.388,319.135 286.388,319.135 C286.388,319.135 298.087,311.848 296.136,303.319 C294.183,294.791 287.816,295.296 284.736,288.963 C282.645,284.665 282.375,283.118 283.751,278.072 C284.707,276.808 285.507,275.745 286.11,274.94 C286.989,274.747 287.873,274.481 288.756,274.153 L290.17,286.703 L292.47,286.703 C298.063,283.375 306.319,281.267 315.536,281.267 C324.754,281.267 333.011,283.375 338.603,286.703 L340.903,286.703 L348.797,216.642 L347.971,216.642 L356.204,194.296 L347.145,189.464 L346.541,180.404 L339.897,177.988 L335.669,171.949 L325.402,176.78 L324.969,168 C345.867,117.957 329.446,50.107 249.273,13.23 C192.841,-12.726 157.945,24.102 157.945,24.102 C84.842,51.45 103.068,119.254 118.942,154.808 C123.109,196.323 148.105,233.837 196.593,236.721 L196.296,239.853 L195.525,240.126 L188.052,242.704 C188.052,242.704 187.052,243.796 185.671,245.499 C177.229,249.643 150.748,261.956 133.584,281.703 L100.033,257.723 L102.718,255.097 C102.718,255.097 109.525,244.598 108.006,231.647 C106.664,220.217 100.46,210.304 95.251,210.712 L95.379,208.824 C97.484,181.042 76.831,136.962 76.831,136.962 L65.855,133.767 L59.27,146.545 C59.27,146.545 68.599,159.321 75.733,179.124 C78.879,187.855 79.439,196.724 79.083,203.915 C73.18,203.292 65.656,204.863 60.526,209.381 C50.763,217.978 63.349,235.314 63.349,235.314 C63.349,235.314 34.524,227.336 33.029,233.433 C31.433,239.948 61.673,247.011 61.673,247.011 C61.673,247.011 29.202,248.117 29.911,253.341 C31.057,261.778 62.406,258.795 62.406,258.795 C62.406,258.795 32.437,265.15 38.263,270.721 C45.121,277.277 77.898,270.239 87.52,267.995 C100.483,282.936 122.12,307.551 126.913,310.971 C133.046,315.349 156.485,298.44 172.71,285.574 C172.105,288.285 171.488,291.085 170.875,293.915 C176.131,289.916 179.054,290.477 179.057,290.475 L179.058,290.471 L179.058,290.475 C179.058,290.475 103.484,315.706 103.484,398.532 C103.484,425.038 127.314,455.906 127.314,471.641 C127.314,487.375 127.072,517.703 127.072,517.703 L188.18,517.703 C196.085,560.13 203.415,599.381 203.415,599.381 C203.415,599.381 201.743,603.922 203.351,606.538 L204.956,609.152 C204.956,609.152 200.435,611.724 203.272,614.994 C206.109,618.266 203.864,617.113 203.864,617.113 C204.009,617.878 206.368,617.864 208.415,617.704 L211.747,636.593 L225.6,636.878 L224.13,617.445 L228.083,617.471 C228.083,617.471 228.067,616.666 228.035,615.169 C228.28,615.167 228.465,615.166 228.562,615.166 C229.787,615.176 229.831,610.3 228.611,609.965 C228.302,609.879 228.074,609.565 227.903,609.143 C227.871,607.575 227.833,605.807 227.79,603.863 C228.038,602.471 228.318,600.583 228.302,599.227 C228.278,597.088 227.695,594.117 227.566,593.493 C227.341,583.148 225.568,563.22 223.297,541.198 C225.15,540.84 226.365,540.42 226.365,540.42 C267.658,528.317 305.832,517.115 305.832,517.115 C305.832,517.115 310.53,518.269 312.95,516.382 L315.37,514.493 C315.37,514.493 318.43,518.699 321.363,515.516 C324.298,512.331 323.403,514.69 323.403,514.689 C324.427,514.375 323.515,510.051 323.046,508.095 L341.649,502.615 z M200.443,643.607 C194.609,649.725 198.085,651.797 198.085,651.797 L225.435,651.801 L225.729,638.285 C225.729,638.285 207.774,635.921 200.443,643.607 z" fill-opacity="0" stroke="#666666" stroke-width="8" stroke-linecap="round" stroke-linejoin="round" id="path18412"/>
    <path d="M16.077,140.263 C4.049,129.37 -4.829,143.362 2.892,150.464 C9.11,156.183 19.448,157.412 26.587,157.501 C27.915,157.518 29.134,157.497 30.194,157.455 C30.44,156.425 30.699,155.233 30.942,153.928 C32.243,146.906 33.051,136.527 28.651,129.315 C23.188,120.359 7.733,126.343 16.077,140.263" fill="#FFCFD0" id="path18414"/>
    <path d="M27.215,87.605 C17.019,69.688 0.753,83.054 7.255,94.687 C12.489,104.057 24.479,109.641 33.06,112.58 C34.656,113.129 36.136,113.586 37.431,113.955 C38.137,112.81 38.923,111.474 39.733,109.995 C44.09,102.037 49.181,89.832 46.732,79.382 C43.692,66.406 22.666,67.496 27.215,87.605" fill="#FFCFD0" id="path18416"/>
    <path d="M157.945,24.102 C157.945,24.102 192.841,-12.726 249.273,13.23 C352.583,60.749 350.052,159.703 298.196,205.707 C250.433,248.082 261.751,248.365 261.751,248.365 C261.751,248.365 139.405,191.617 129.385,175.037 C119.365,158.457 65.279,58.768 157.945,24.102" fill="#D4A672" id="path18418"/>
    <path d="M157.945,24.102 C157.945,24.102 192.841,-12.726 249.273,13.23 C352.583,60.749 350.052,159.703 298.196,205.707 C250.433,248.082 261.751,248.365 261.751,248.365 C261.751,248.365 139.405,191.617 129.385,175.037 C119.365,158.457 65.279,58.768 157.945,24.102 z" fill-opacity="0" stroke="#666666" stroke-width="4" stroke-linecap="round" stroke-linejoin="round" id="path18420"/>
    <path d="M278.349,252.123 C278.349,252.123 291.055,253.527 286.788,267.903 C282.523,282.279 281.655,282.633 284.736,288.963 C287.816,295.296 294.183,294.791 296.136,303.319 C298.087,311.848 286.388,319.135 286.388,319.135 C286.388,319.135 288.513,310.685 282.138,306.199 C275.763,301.715 261.769,303.359 261.521,290.313 C261.273,277.269 255.573,279.322 252.47,274.275 C245.007,262.142 258.886,240.319 278.349,252.123" fill="#D4A672" id="path18422"/>
    <path d="M278.349,252.123 C278.349,252.123 291.055,253.527 286.788,267.903 C282.523,282.279 281.655,282.633 284.736,288.963 C287.816,295.296 294.183,294.791 296.136,303.319 C298.087,311.848 286.388,319.135 286.388,319.135 C286.388,319.135 288.513,310.685 282.138,306.199 C275.763,301.715 261.769,303.359 261.521,290.313 C261.273,277.269 255.573,279.322 252.47,274.275 C245.007,262.142 258.886,240.319 278.349,252.123 z" fill-opacity="0" stroke="#666666" stroke-width="4" stroke-linecap="round" stroke-linejoin="round" id="path18424"/>
    <path d="M270.622,244.414 C271.33,246.838 269.419,249.53 266.355,250.425 L256.112,253.413 C253.048,254.308 249.989,253.067 249.28,250.642 C248.573,248.215 250.486,245.524 253.549,244.63 L263.792,241.641 C266.857,240.746 269.914,241.988 270.622,244.414" fill="#FFE500" id="path18426"/>
    <path d="M270.622,244.414 C271.33,246.838 269.419,249.53 266.355,250.425 L256.112,253.413 C253.048,254.308 249.989,253.067 249.28,250.642 C248.573,248.215 250.486,245.524 253.549,244.63 L263.792,241.641 C266.857,240.746 269.914,241.988 270.622,244.414 z" fill-opacity="0" stroke="#666666" stroke-width="4" stroke-linecap="round" stroke-linejoin="round" id="path18428"/>
    <path d="M188.882,272.203 C188.882,272.203 136.547,317.847 126.913,310.971 C119.965,306.013 77.613,256.511 77.613,256.511 L92.473,252.319 L133.584,281.703 C152.272,260.203 182.021,247.508 187.487,244.583 L191.294,243.207" fill="#FFA1BD" id="path18430"/>
    <path d="M188.882,272.203 C188.882,272.203 136.547,317.847 126.913,310.971 C119.965,306.013 77.613,256.511 77.613,256.511 L92.473,252.319 L133.584,281.703 C152.272,260.203 182.021,247.508 187.487,244.583 L191.294,243.207" fill-opacity="0" stroke="#666666" stroke-width="4" stroke-linecap="round" stroke-linejoin="round" id="path18432"/>
    <path d="M63.349,235.314 C63.349,235.314 50.763,217.978 60.526,209.381 C70.29,200.782 88.738,202.847 88.14,210.426 C87.574,217.614 72.762,209.556 69.264,215.802 C64.946,223.516 75.919,232.633 75.919,232.633 C75.919,232.633 87.317,241.083 95.497,228.801 C99.159,223.301 87.106,217.072 92.605,211.948 C98.105,206.825 106.426,218.189 108.006,231.647 C109.525,244.598 102.718,255.097 102.718,255.097 L90.186,267.354 C90.186,267.354 46.322,278.426 38.263,270.721 C32.437,265.15 62.406,258.795 62.406,258.795 C62.406,258.795 31.057,261.778 29.911,253.341 C29.202,248.117 61.673,247.011 61.673,247.011 C61.673,247.011 31.433,239.948 33.029,233.433 C34.524,227.336 63.349,235.314 63.349,235.314" fill="#FFECD0" id="path18434"/>
    <path d="M63.349,235.314 C63.349,235.314 50.763,217.978 60.526,209.381 C70.29,200.782 88.738,202.847 88.14,210.426 C87.574,217.614 72.762,209.556 69.264,215.802 C64.946,223.516 75.919,232.633 75.919,232.633 C75.919,232.633 87.317,241.083 95.497,228.801 C99.159,223.301 87.106,217.072 92.605,211.948 C98.105,206.825 106.426,218.189 108.006,231.647 C109.525,244.598 102.718,255.097 102.718,255.097 L90.186,267.354 C90.186,267.354 46.322,278.426 38.263,270.721 C32.437,265.15 62.406,258.795 62.406,258.795 C62.406,258.795 31.057,261.778 29.911,253.341 C29.202,248.117 61.673,247.011 61.673,247.011 C61.673,247.011 31.433,239.948 33.029,233.433 C34.524,227.336 63.349,235.314 63.349,235.314 z" fill-opacity="0" stroke="#666666" stroke-width="4" stroke-linecap="round" stroke-linejoin="round" id="path18436"/>
    <path d="M76.708,219.453 C76.708,219.453 82.868,198.928 75.733,179.124 C68.599,159.321 59.27,146.545 59.27,146.545 L65.855,133.767 L76.831,136.962 C76.831,136.962 97.484,181.042 95.379,208.824 L94.747,218.141 z" fill="#FFE76E" id="path18438"/>
    <path d="M76.708,219.453 C76.708,219.453 82.868,198.928 75.733,179.124 C68.599,159.321 59.27,146.545 59.27,146.545 L65.855,133.767 L76.831,136.962 C76.831,136.962 97.484,181.042 95.379,208.824 L94.747,218.141 z" fill-opacity="0" stroke="#666666" stroke-width="4" stroke-linecap="round" stroke-linejoin="round" id="path18440"/>
    <path d="M76.708,219.453 L87.032,225.317 L95.346,218.9 L86.015,207.076 z" fill="#FFE76E" id="path18442"/>
    <path d="M76.708,219.453 L87.032,225.317 L95.346,218.9 L86.015,207.076 z" fill-opacity="0" stroke="#666666" stroke-width="4" stroke-linecap="round" stroke-linejoin="round" id="path18444"/>
    <path d="M225.908,379.625 C203.718,337.228 191.431,362.534 191.431,362.534 C191.431,362.534 191.134,365.831 190.685,370.872 L176.392,370.756 C176.392,370.756 166.659,396.712 168.893,413.563 C169.326,416.838 203.415,599.381 203.415,599.381 C203.415,599.381 201.743,603.922 203.351,606.538 L204.956,609.152 C204.956,609.152 200.435,611.724 203.272,614.994 C206.109,618.266 203.864,617.113 203.864,617.113 C204.122,618.477 211.437,617.363 211.437,617.363 L228.083,617.471 C228.083,617.471 228.067,616.666 228.035,615.169 C228.28,615.167 228.465,615.166 228.562,615.166 C229.787,615.176 229.831,610.3 228.611,609.965 C228.302,609.879 228.074,609.565 227.903,609.143 C227.871,607.575 227.833,605.807 227.79,603.863 C228.038,602.471 228.318,600.583 228.302,599.227 C228.278,597.088 227.695,594.117 227.566,593.493 C226.888,562.273 212.108,443.793 212.108,443.793 C212.108,443.793 248.099,422.024 225.908,379.625" fill="#D9D9D9" id="path18446"/>
    <path d="M225.908,379.625 C203.718,337.228 191.431,362.534 191.431,362.534 C191.431,362.534 191.134,365.831 190.685,370.872 L176.392,370.756 C176.392,370.756 166.659,396.712 168.893,413.563 C169.326,416.838 203.415,599.381 203.415,599.381 C203.415,599.381 201.743,603.922 203.351,606.538 L204.956,609.152 C204.956,609.152 200.435,611.724 203.272,614.994 C206.109,618.266 203.864,617.113 203.864,617.113 C204.122,618.477 211.437,617.363 211.437,617.363 L228.083,617.471 C228.083,617.471 228.067,616.666 228.035,615.169 C228.28,615.167 228.465,615.166 228.562,615.166 C229.787,615.176 229.831,610.3 228.611,609.965 C228.302,609.879 228.074,609.565 227.903,609.143 C227.871,607.575 227.833,605.807 227.79,603.863 C228.038,602.471 228.318,600.583 228.302,599.227 C228.278,597.088 227.695,594.117 227.566,593.493 C226.888,562.273 212.108,443.793 212.108,443.793 C212.108,443.793 248.099,422.024 225.908,379.625 z" fill-opacity="0" stroke="#666666" stroke-width="4" stroke-linecap="round" stroke-linejoin="round" id="path18448"/>
    <path d="M322.807,507.138 L321.055,490.583 C321.055,490.583 320.257,490.688 318.774,490.888 C318.743,490.645 318.722,490.462 318.712,490.363 C318.585,489.145 313.734,489.646 313.537,490.897 C313.486,491.213 313.199,491.475 312.8,491.691 C311.245,491.898 309.491,492.134 307.566,492.392 C306.153,492.302 304.246,492.235 302.902,492.402 C300.778,492.664 297.891,493.575 297.285,493.774 C284.629,495.475 257.695,500.802 230.278,506.506 C221.541,478.38 214.165,455.306 214.165,455.306 C214.165,455.306 234.847,426.288 204.576,389.222 C174.308,352.158 177.559,379.869 177.559,379.869 C177.559,379.869 177.931,383.158 178.506,388.187 L164.483,390.949 C164.483,390.949 160.173,418.333 165.751,434.391 C166.333,436.065 186.214,486.488 204.513,532.851 C204.513,532.851 205.191,535.257 207.888,537.448 C213.855,544.751 226.365,540.42 226.365,540.42 C267.658,528.317 305.832,517.115 305.832,517.115 C305.832,517.115 310.53,518.269 312.951,516.382 L315.37,514.493 C315.37,514.493 318.43,518.699 321.363,515.516 C324.298,512.331 323.403,514.69 323.403,514.689 C324.729,514.282 322.807,507.138 322.807,507.138" fill="#D9D9D9" id="path18450"/>
    <path d="M322.807,507.138 L321.055,490.583 C321.055,490.583 320.257,490.688 318.774,490.888 C318.743,490.645 318.722,490.462 318.712,490.363 C318.585,489.145 313.734,489.646 313.537,490.897 C313.486,491.213 313.199,491.475 312.8,491.691 C311.245,491.898 309.491,492.134 307.566,492.392 C306.153,492.302 304.246,492.235 302.902,492.402 C300.778,492.664 297.891,493.575 297.285,493.774 C284.629,495.475 257.695,500.802 230.278,506.506 C221.541,478.38 214.165,455.306 214.165,455.306 C214.165,455.306 234.847,426.288 204.576,389.222 C174.308,352.158 177.559,379.869 177.559,379.869 C177.559,379.869 177.931,383.158 178.506,388.187 L164.483,390.949 C164.483,390.949 160.173,418.333 165.751,434.391 C166.333,436.065 186.214,486.488 204.513,532.851 C204.513,532.851 205.191,535.257 207.888,537.448 C213.855,544.751 226.365,540.42 226.365,540.42 C267.658,528.317 305.832,517.115 305.832,517.115 C305.832,517.115 310.53,518.269 312.951,516.382 L315.37,514.493 C315.37,514.493 318.43,518.699 321.363,515.516 C324.298,512.331 323.403,514.69 323.403,514.689 C324.729,514.282 322.807,507.138 322.807,507.138 z" fill-opacity="0" stroke="#666666" stroke-width="4" stroke-linecap="round" stroke-linejoin="round" id="path18452"/>
    <path d="M186.173,250.207 L179.058,290.475 C179.058,290.475 103.484,315.706 103.484,398.532 C103.484,425.038 127.314,455.906 127.314,471.641 C127.314,487.375 127.072,517.703 127.072,517.703 L245.987,517.703 C245.987,517.703 239.31,437.654 234.318,368.703 C230.788,319.951 223.655,251.703 223.655,251.703 z" fill="#FFD6DB" id="path18454"/>
    <path d="M186.173,250.207 L179.058,290.475 C179.058,290.475 103.484,315.706 103.484,398.532 C103.484,425.038 127.314,455.906 127.314,471.641 C127.314,487.375 127.072,517.703 127.072,517.703 L245.987,517.703 C245.987,517.703 239.31,437.654 234.318,368.703 C230.788,319.951 223.655,251.703 223.655,251.703 z" fill-opacity="0" stroke="#666666" stroke-width="4" stroke-linecap="round" stroke-linejoin="round" id="path18456"/>
    <path d="M239.4,278.419 C239.4,278.419 237.989,304.392 242.029,321.623 C244.798,333.433 259.527,411.216 258.816,419.057 C260.04,424 261.655,430.521 261.655,430.521 C261.655,430.521 215.607,430.207 214.005,429.953 C216.131,388.111 199.489,257.37 199.489,257.37 C204.689,241.117 208.288,237.057 223.029,242.579 C233.663,249.23 238.806,275.139 238.529,279.329" fill="#FFA1BD" id="path18458"/>
    <path d="M239.4,278.419 C239.4,278.419 237.989,304.392 242.029,321.623 C244.798,333.433 259.527,411.216 258.816,419.057 C260.04,424 261.655,430.521 261.655,430.521 C261.655,430.521 215.607,430.207 214.005,429.953 C216.131,388.111 199.489,257.37 199.489,257.37 C204.689,241.117 208.288,237.057 223.029,242.579 C233.663,249.23 238.806,275.139 238.529,279.329" fill-opacity="0" stroke="#666666" stroke-width="4" stroke-linecap="round" stroke-linejoin="round" id="path18460"/>
    <path d="M179.057,290.475 C179.058,290.474 179.058,290.472 179.058,290.47 L187.823,259.703 C187.823,259.703 187.8,250.656 188.82,244.488 C182.929,248.294 178.862,258.913 178.862,258.913 C178.862,258.913 174.799,275.815 170.875,293.915 C176.131,289.916 179.054,290.477 179.057,290.475" fill="#FFA1BD" id="path18462"/>
    <path d="M179.057,290.475 C179.058,290.474 179.058,290.472 179.058,290.47 L187.823,259.703 C187.823,259.703 187.8,250.656 188.82,244.488 C182.929,248.294 178.862,258.913 178.862,258.913 C178.862,258.913 174.799,275.815 170.875,293.915 C176.131,289.916 179.054,290.477 179.057,290.475 z" fill-opacity="0" stroke="#666666" stroke-width="4" stroke-linecap="round" stroke-linejoin="round" id="path18464"/>
    <path d="M214.374,260.037 C222.614,253.369 219.284,242.428 219.284,242.428 L211.999,239.853 L210.638,225.474 L204.148,221.254 L197.657,225.474 L196.296,239.853 L192.49,241.198 C192.49,241.198 183.464,253.369 186.175,260.037 z" fill="#FFECD0" id="path18466"/>
    <path d="M214.374,260.037 C222.614,253.369 219.284,242.428 219.284,242.428 L211.999,239.853 L210.638,225.474 L204.148,221.254 L197.657,225.474 L196.296,239.853 L192.49,241.198 C192.49,241.198 183.464,253.369 186.175,260.037 z" fill-opacity="0" stroke="#666666" stroke-width="4" stroke-linecap="round" stroke-linejoin="round" id="path18468"/>
    <path d="M219.202,275.969 C219.202,275.969 229.518,296.163 233.484,300.47 C239.93,307.47 246.109,318.679 259.775,307.18 C266.161,301.806 287.334,273.303 287.334,273.303 L271.721,264.11 L248.622,282.847 C238.484,262.97 230.627,246.395 225.361,243.471 L221.695,242.095" fill="#FFA1BD" id="path18470"/>
    <path d="M219.202,275.969 C219.202,275.969 229.518,296.163 233.484,300.47 C239.93,307.47 246.109,318.679 259.775,307.18 C266.161,301.806 287.334,273.303 287.334,273.303 L271.721,264.11 L248.622,282.847 C238.484,262.97 230.627,246.395 225.361,243.471 L221.695,242.095" fill-opacity="0" stroke="#666666" stroke-width="4" stroke-linecap="round" stroke-linejoin="round" id="path18472"/>
    <path d="M218.778,241.175 L213.14,240.257 L198.885,260.037 C198.885,260.037 206.405,273.453 214.905,267.453 C223.405,261.453 218.778,241.175 218.778,241.175" fill="#FFFFFF" id="path18474"/>
    <path d="M218.778,241.175 L213.14,240.257 L198.885,260.037 C198.885,260.037 206.405,273.453 214.905,267.453 C223.405,261.453 218.778,241.175 218.778,241.175 z" fill-opacity="0" stroke="#666666" stroke-width="4" stroke-linecap="round" stroke-linejoin="round" id="path18476"/>
    <path d="M195.525,240.126 L188.052,242.704 C188.052,242.704 171.385,260.871 179.984,265.098 C182.633,266.399 188.218,260.037 188.218,260.037 z" fill="#FFFFFF" id="path18478"/>
    <path d="M195.525,240.126 L188.052,242.704 C188.052,242.704 171.385,260.871 179.984,265.098 C182.633,266.399 188.218,260.037 188.218,260.037 z" fill-opacity="0" stroke="#666666" stroke-width="4" stroke-linecap="round" stroke-linejoin="round" id="path18480"/>
    <path d="M222.144,375.82 L246.675,383.69 L247.146,390.301 L222.409,382.492 z" fill="#FFA1BD" id="path18482"/>
    <path d="M222.144,375.82 L246.675,383.69 L247.146,390.301 L222.409,382.492 z" fill-opacity="0" stroke="#666666" stroke-width="4" stroke-linecap="round" stroke-linejoin="round" id="path18484"/>
    <path d="M276.086,274.25 C276.086,274.25 266.383,265.703 272.081,249.373 C277.49,233.87 291.383,237.622 291.383,237.622 C291.383,237.622 307.818,234.401 310.883,246.203 C312.914,254.014 298.19,273.219 284.931,275.16 C278.956,276.034 276.086,274.25 276.086,274.25" fill="#FFECD0" id="path18486"/>
    <path d="M276.086,274.25 C276.086,274.25 266.383,265.703 272.081,249.373 C277.49,233.87 291.383,237.622 291.383,237.622 C291.383,237.622 307.818,234.401 310.883,246.203 C312.914,254.014 298.19,273.219 284.931,275.16 C278.956,276.034 276.086,274.25 276.086,274.25 z" fill-opacity="0" stroke="#666666" stroke-width="4" stroke-linecap="round" stroke-linejoin="round" id="path18488"/>
    <path d="M202.655,236.905 C84.556,236.905 95.982,39.958 202.655,39.958 C309.33,39.958 320.757,236.905 202.655,236.905" fill="#FFECD0" id="path18490"/>
    <path d="M202.655,236.905 C84.556,236.905 95.982,39.958 202.655,39.958 C309.33,39.958 320.757,236.905 202.655,236.905 z" fill-opacity="0" stroke="#666666" stroke-width="4" stroke-linecap="round" stroke-linejoin="round" id="path18492"/>
    <path d="M276.23,191.425 C289.015,166.226 278.657,156.072 262.897,131.679 C253.6,117.29 247.613,102.075 245.297,91.897 C245.297,91.897 232.001,42.006 198.362,43.035 C198.362,43.035 258.812,21.769 276.99,63.703 C314.49,150.203 276.23,191.425 276.23,191.425" fill="#D4A672" id="path18494"/>
    <path d="M245.297,91.897 C247.613,102.075 252.474,112.078 260.821,127.036 C274.942,152.335 298.153,170.371 261.24,213.465" fill-opacity="0" stroke="#666666" stroke-width="3.609" stroke-linecap="round" stroke-linejoin="round" id="path18496"/>
    <path d="M154.218,43.608 C154.218,43.608 142.058,46.746 138.923,65.255 C135.787,83.765 148.654,97.566 195.325,92.616" fill="#D4A672" id="path18498"/>
    <path d="M154.218,43.608 C154.218,43.608 142.058,46.746 138.923,65.255 C135.787,83.765 148.654,97.566 195.325,92.616" fill-opacity="0" stroke="#666666" stroke-width="3.609" stroke-linecap="round" stroke-linejoin="round" id="path18500"/>
    <path d="M154.218,43.608 C155.538,40.774 165.702,35.002 167.774,31.717 C167.774,31.717 190.257,12.963 213.242,27.771 C236.23,42.581 246.957,75.219 247.121,80.233 C247.284,85.248 250.131,95.472 246.875,96.236 C243.619,97.001 233.239,94.468 233.239,94.468 C233.239,94.468 191.958,99.148 180.817,87.009 C170.705,75.991 141.253,71.441 154.218,43.608" fill="#D4A672" id="path18502"/>
    <path d="M169.182,64.936 C166.364,88.311 195.325,99.319 241.091,93.603" fill="#D4A672" id="path18504"/>
    <path d="M169.182,64.936 C166.364,88.311 195.325,99.319 241.091,93.603" fill-opacity="0" stroke="#666666" stroke-width="3.609" stroke-linecap="round" stroke-linejoin="round" id="path18506"/>
    <path d="M200.927,69.936 C200.927,69.936 216.485,88.772 250.88,96.589" fill="#D4A672" id="path18508"/>
    <path d="M200.927,69.936 C200.927,69.936 216.485,88.772 250.88,96.589" fill-opacity="0" stroke="#666666" stroke-width="3.609" stroke-linecap="round" stroke-linejoin="round" id="path18510"/>
    <path d="M166.838,176.385 C166.838,176.385 165.505,182.385 170.757,182.052" fill-opacity="0" stroke="#666666" stroke-width="4" stroke-linecap="round" stroke-linejoin="round" id="path18512"/>
    <path d="M207.329,104.536 C207.329,104.536 211.106,100.033 218.243,101.073 C223.376,101.821 227.696,109.019 227.696,109.019" fill-opacity="0" stroke="#666666" stroke-width="4" stroke-linecap="round" stroke-linejoin="round" id="path18514"/>
    <path d="M141.472,109.49 C141.472,109.49 142.673,103.738 149.454,101.281 C154.331,99.516 161.541,103.817 161.541,103.817" fill-opacity="0" stroke="#666666" stroke-width="4" stroke-linecap="round" stroke-linejoin="round" id="path18516"/>
    <path d="M141.989,148.731 C141.989,148.731 152.505,149.181 157.372,156.143 C151.489,155.294 140.989,159.149 140.989,159.149" fill-opacity="0" stroke="#666666" stroke-width="4" stroke-linecap="round" stroke-linejoin="round" id="path18518"/>
    <path d="M226.603,148.731 C226.603,148.731 216.087,149.181 211.22,156.143 C217.103,155.294 227.603,159.149 227.603,159.149" fill-opacity="0" stroke="#666666" stroke-width="4" stroke-linecap="round" stroke-linejoin="round" id="path18520"/>
    <path d="M195.386,209.308 C194.069,206.119 196.189,190.331 207.861,190.519 C213.613,190.612 213.958,196.312 210.995,201.176" fill="#F09A96" id="path18522"/>
    <path d="M195.386,209.308 C194.069,206.119 196.189,190.331 207.861,190.519 C213.613,190.612 213.958,196.312 210.995,201.176" fill-opacity="0" stroke="#666666" stroke-width="4.055" stroke-linecap="round" stroke-linejoin="round" id="path18524"/>
    <path d="M176.018,208.032 C176.018,208.032 195.982,215.552 210.995,201.176" fill-opacity="0" stroke="#666666" stroke-width="4" stroke-linecap="round" stroke-linejoin="round" id="path18526"/>
    <path d="M287.955,225.702 L279.5,187.652 L288.56,185.236 L294.543,191.835 L297.619,177.385 L306.074,177.385 L309.095,164.701 L324.94,167.4 L325.402,176.78 L335.669,171.949 L339.897,177.988 L346.541,180.404 L347.145,189.464 L356.204,194.296 L343.521,228.722 z" fill="#FFE76E" id="path18528"/>
    <path d="M287.955,225.702 L279.5,187.652 L288.56,185.236 L294.543,191.835 L297.619,177.385 L306.074,177.385 L309.095,164.701 L324.94,167.4 L325.402,176.78 L335.669,171.949 L339.897,177.988 L346.541,180.404 L347.145,189.464 L356.204,194.296 L343.521,228.722 z" fill-opacity="0" stroke="#666666" stroke-width="4" stroke-linecap="round" stroke-linejoin="round" id="path18530"/>
    <path d="M292.47,286.703 C298.063,283.375 306.319,281.267 315.536,281.267 C324.754,281.267 333.011,283.375 338.603,286.703 L340.903,286.703 L348.797,216.642 L342.028,216.642 C336.435,219.971 324.754,222.078 315.536,222.078 C306.319,222.078 294.639,219.971 289.046,216.642 L282.276,216.642 L290.17,286.703 z" fill="#EB7373" id="path18532"/>
    <path d="M292.47,286.703 C298.063,283.375 306.319,281.267 315.536,281.267 C324.754,281.267 333.011,283.375 338.603,286.703 L340.903,286.703 L348.797,216.642 L342.028,216.642 C336.435,219.971 324.754,222.078 315.536,222.078 C306.319,222.078 294.639,219.971 289.046,216.642 L282.276,216.642 L290.17,286.703 z" fill-opacity="0" stroke="#666666" stroke-width="4" stroke-linecap="round" stroke-linejoin="round" id="path18534"/>
    <path d="M334.398,270.339 C334.398,270.339 335.287,232.289 325.964,232.289 C316.642,232.289 316.199,263.091 316.199,263.091 M298,270.339 C298,270.339 297.11,232.289 306.432,232.289 C315.755,232.289 316.199,263.091 316.199,263.091" fill-opacity="0" stroke="#FFFFFF" stroke-width="4" stroke-linecap="round" stroke-linejoin="round" id="path18588"/>
    <path d="M333.268,269.209 C333.268,269.209 334.157,231.159 324.834,231.159 C315.512,231.159 315.069,261.961 315.069,261.961 M296.87,269.209 C296.87,269.209 295.98,231.159 305.302,231.159 C314.625,231.159 315.069,261.961 315.069,261.961" fill-opacity="0" stroke="#FFBF00" stroke-width="4" stroke-linecap="round" stroke-linejoin="round" id="path18542"/>
    <path d="M318.986,192.621 L316.615,210.714" fill="#FFE76E" id="path18544"/>
    <path d="M318.986,192.621 L316.615,210.714" fill-opacity="0" stroke="#666666" stroke-width="4" stroke-linecap="round" stroke-linejoin="round" id="path18546"/>
    <path d="M305.471,213.018 L301.79,201.509" fill="#FFE76E" id="path18548"/>
    <path d="M305.471,213.018 L301.79,201.509" fill-opacity="0" stroke="#666666" stroke-width="4" stroke-linecap="round" stroke-linejoin="round" id="path18550"/>
    <path d="M334.461,190.068 L330.234,213.623" fill="#FFE76E" id="path18552"/>
    <path d="M334.461,190.068 L330.234,213.623" fill-opacity="0" stroke="#666666" stroke-width="4" stroke-linecap="round" stroke-linejoin="round" id="path18554"/>
    <path d="M280.113,255.735 C280.113,255.735 290.876,245.491 294.055,251.848 C297.555,258.848 279.382,267.703 279.382,267.703" fill="#FFECD0" id="path18556"/>
    <path d="M280.113,255.735 C280.113,255.735 290.876,245.491 294.055,251.848 C297.555,258.848 279.382,267.703 279.382,267.703" fill-opacity="0" stroke="#666666" stroke-width="4" stroke-linecap="round" stroke-linejoin="round" id="path18558"/>
  </g>
</svg>
